<mxfile host="Electron" agent="Mozilla/5.0 (Macintosh; Intel Mac OS X 10_15_7) AppleWebKit/537.36 (KHTML, like Gecko) draw.io/28.1.2 Chrome/138.0.7204.243 Electron/37.4.0 Safari/537.36" version="28.1.2">
  <diagram id="topology" name="Topology">
    <mxGraphModel dx="2487" dy="2759" grid="1" gridSize="10" guides="1" tooltips="1" connect="1" arrows="1" fold="1" page="1" pageScale="1" pageWidth="1654" pageHeight="2339" math="0" shadow="0">
      <root>
        <mxCell id="0" />
        <mxCell id="1" parent="0" />
        <mxCell id="region_2" value="互联网" style="swimlane;fontStyle=1;align=center;verticalAlign=top;horizontal=1;startSize=40;collapsible=0;marginBottom=0;fillColor=#fff2cc;strokeColor=#d6b656;fontSize=18;" parent="1" vertex="1" data_type="region" data_name="互联网" data_parent_name="">
          <mxGeometry width="440" height="560" as="geometry" />
        </mxCell>
        <mxCell id="region_3" value="DMZ" style="swimlane;fontStyle=1;align=center;verticalAlign=top;horizontal=1;startSize=40;collapsible=0;marginBottom=0;fillColor=#fff2cc;strokeColor=#d6b656;fontSize=18;" parent="region_2" vertex="1" data_type="region" data_name="DMZ" data_parent_name="互联网">
          <mxGeometry x="60" y="100" width="320" height="400" as="geometry" />
        </mxCell>
        <mxCell id="device_4" value="&lt;div&gt;&lt;b&gt;intcsw01&lt;/b&gt;&lt;br/&gt;10.255.1.1&lt;/div&gt;" style="rounded=1;whiteSpace=wrap;html=1;fillColor=#dae8fc;strokeColor=#6c8ebf;fontSize=16;" parent="region_3" vertex="1" data_type="device" data_device_name="intcsw01" data_management_address="10.255.1.1" data_region="DMZ" data_parent_region="互联网" data_device_model="8886" data_device_type="核心交换机" data_cabinet="a01" data_u_position="20">
          <mxGeometry x="60" y="100" width="160" height="80" as="geometry" />
        </mxCell>
        <mxCell id="edge_6" value="" style="edgeStyle=orthogonalEdgeStyle;rounded=0;orthogonalLoop=1;jettySize=auto;html=1;strokeColor=#000000;orthogonal=1;endArrow=classic;endFill=1;" parent="1" source="device_4" target="device_5" edge="1" data_type="link" data_sequence="1" data_usage="核心互联" data_cable_type="光纤" data_bandwidth="" data_remark="" data_src_device_name="intcsw01" data_src_management_address="10.255.1.1" data_src_parent_region="互联网" data_src_region="DMZ" data_src_device_model="8886" data_src_device_type="核心交换机" data_src_cabinet="a01" data_src_u_position="20" data_src_port_channel="10" data_src_physical_interface="g1/0/1" data_src_vrf="default" data_src_vlan="" data_src_interface_ip="10.1.1.1" data_dst_device_name="intcsw01" data_dst_management_address="10.255.1.2" data_dst_parent_region="互联网" data_dst_region="DMZ" data_dst_device_model="8886" data_dst_device_type="核心交换机" data_dst_cabinet="a02" data_dst_u_position="20" data_dst_port_channel="10" data_dst_physical_interface="g1/0/1" data_dst_vrf="default" data_dst_vlan="g1/0/1" data_dst_interface_ip="10.1.1.2">
          <mxGeometry relative="1" as="geometry">
            <mxPoint as="targetPoint" />
          </mxGeometry>
        </mxCell>
        <mxCell id="edgeLabel_7" value="PC10&lt;br/&gt;g1/0/1&lt;br/&gt;VRF:default&lt;br/&gt;10.1.1.1" style="edgeLabel;html=1;align=center;verticalAlign=middle;resizable=0;points=[];fontSize=10;fontColor=#000000;labelBackgroundColor=#ffffff;strokeColor=#cccccc;rounded=1;" parent="edge_6" vertex="1" connectable="0">
          <mxGeometry x="-0.8" relative="1" as="geometry">
            <mxPoint x="-20" y="-15" as="offset" />
          </mxGeometry>
        </mxCell>
        <mxCell id="edgeLabel_8" value="PC10&lt;br/&gt;g1/0/1&lt;br/&gt;VRF:default&lt;br/&gt;VLAN:g1/0/1&lt;br/&gt;10.1.1.2" style="edgeLabel;html=1;align=center;verticalAlign=middle;resizable=0;points=[];fontSize=10;fontColor=#000000;labelBackgroundColor=#ffffff;strokeColor=#cccccc;rounded=1;" parent="edge_6" vertex="1" connectable="0">
          <mxGeometry x="0.8" relative="1" as="geometry">
            <mxPoint x="20" y="-15" as="offset" />
          </mxGeometry>
        </mxCell>
        <mxCell id="edge_9" value="" style="edgeStyle=orthogonalEdgeStyle;rounded=0;orthogonalLoop=1;jettySize=auto;html=1;strokeColor=#000000;orthogonal=1;endArrow=classic;endFill=1;" parent="1" source="device_4" target="device_5" edge="1" data_type="link" data_sequence="1" data_usage="核心互联" data_cable_type="光纤" data_bandwidth="" data_remark="" data_src_device_name="intcsw01" data_src_management_address="10.255.1.1" data_src_parent_region="互联网" data_src_region="DMZ" data_src_device_model="8886" data_src_device_type="核心交换机" data_src_cabinet="a01" data_src_u_position="20" data_src_port_channel="10" data_src_physical_interface="g1/0/2" data_src_vrf="default" data_src_vlan="" data_src_interface_ip="10.1.1.1" data_dst_device_name="intcsw01" data_dst_management_address="10.255.1.2" data_dst_parent_region="互联网" data_dst_region="DMZ" data_dst_device_model="8886" data_dst_device_type="核心交换机" data_dst_cabinet="a02" data_dst_u_position="20" data_dst_port_channel="10" data_dst_physical_interface="g1/0/2" data_dst_vrf="default" data_dst_vlan="g1/0/1" data_dst_interface_ip="10.1.1.2">
          <mxGeometry relative="1" as="geometry">
            <Array as="points">
              <mxPoint x="-80" />
            </Array>
            <mxPoint as="targetPoint" />
          </mxGeometry>
        </mxCell>
        <mxCell id="edgeLabel_10" value="PC10&lt;br/&gt;g1/0/2&lt;br/&gt;VRF:default&lt;br/&gt;10.1.1.1" style="edgeLabel;html=1;align=center;verticalAlign=middle;resizable=0;points=[];fontSize=10;fontColor=#000000;labelBackgroundColor=#ffffff;strokeColor=#cccccc;rounded=1;" parent="edge_9" vertex="1" connectable="0">
          <mxGeometry x="-0.8" relative="1" as="geometry">
            <mxPoint x="-20" y="-15" as="offset" />
          </mxGeometry>
        </mxCell>
        <mxCell id="edgeLabel_11" value="PC10&lt;br/&gt;g1/0/2&lt;br/&gt;VRF:default&lt;br/&gt;VLAN:g1/0/1&lt;br/&gt;10.1.1.2" style="edgeLabel;html=1;align=center;verticalAlign=middle;resizable=0;points=[];fontSize=10;fontColor=#000000;labelBackgroundColor=#ffffff;strokeColor=#cccccc;rounded=1;" parent="edge_9" vertex="1" connectable="0">
          <mxGeometry x="0.8" relative="1" as="geometry">
            <mxPoint x="20" y="-15" as="offset" />
          </mxGeometry>
        </mxCell>
        <mxCell id="edge_12" value="" style="edgeStyle=orthogonalEdgeStyle;rounded=0;orthogonalLoop=1;jettySize=auto;html=1;strokeColor=#000000;orthogonal=1;endArrow=classic;endFill=1;" parent="1" source="device_4" target="device_5" edge="1" data_type="link" data_sequence="1" data_usage="核心互联" data_cable_type="光纤" data_bandwidth="" data_remark="" data_src_device_name="intcsw01" data_src_management_address="10.255.1.1" data_src_parent_region="互联网" data_src_region="DMZ" data_src_device_model="8886" data_src_device_type="核心交换机" data_src_cabinet="a01" data_src_u_position="20" data_src_port_channel="10" data_src_physical_interface="g1/0/3" data_src_vrf="default" data_src_vlan="" data_src_interface_ip="10.1.1.1" data_dst_device_name="intcsw01" data_dst_management_address="10.255.1.2" data_dst_parent_region="互联网" data_dst_region="DMZ" data_dst_device_model="8886" data_dst_device_type="核心交换机" data_dst_cabinet="a02" data_dst_u_position="20" data_dst_port_channel="10" data_dst_physical_interface="g1/0/3" data_dst_vrf="default" data_dst_vlan="g1/0/1" data_dst_interface_ip="10.1.1.2">
          <mxGeometry relative="1" as="geometry">
            <Array as="points">
              <mxPoint x="80" />
            </Array>
            <mxPoint as="targetPoint" />
          </mxGeometry>
        </mxCell>
        <mxCell id="edgeLabel_13" value="PC10&lt;br/&gt;g1/0/3&lt;br/&gt;VRF:default&lt;br/&gt;10.1.1.1" style="edgeLabel;html=1;align=center;verticalAlign=middle;resizable=0;points=[];fontSize=10;fontColor=#000000;labelBackgroundColor=#ffffff;strokeColor=#cccccc;rounded=1;" parent="edge_12" vertex="1" connectable="0">
          <mxGeometry x="-0.8" relative="1" as="geometry">
            <mxPoint x="-20" y="-15" as="offset" />
          </mxGeometry>
        </mxCell>
        <mxCell id="edgeLabel_14" value="PC10&lt;br/&gt;g1/0/3&lt;br/&gt;VRF:default&lt;br/&gt;VLAN:g1/0/1&lt;br/&gt;10.1.1.2" style="edgeLabel;html=1;align=center;verticalAlign=middle;resizable=0;points=[];fontSize=10;fontColor=#000000;labelBackgroundColor=#ffffff;strokeColor=#cccccc;rounded=1;" parent="edge_12" vertex="1" connectable="0">
          <mxGeometry x="0.8" relative="1" as="geometry">
            <mxPoint x="20" y="-15" as="offset" />
          </mxGeometry>
        </mxCell>
        <mxCell id="edge_15" value="" style="edgeStyle=orthogonalEdgeStyle;rounded=0;orthogonalLoop=1;jettySize=auto;html=1;strokeColor=#000000;orthogonal=1;endArrow=classic;endFill=1;" parent="1" source="device_4" target="device_5" edge="1" data_type="link" data_sequence="1" data_usage="核心互联" data_cable_type="光纤" data_bandwidth="" data_remark="" data_src_device_name="intcsw01" data_src_management_address="10.255.1.1" data_src_parent_region="互联网" data_src_region="DMZ" data_src_device_model="8886" data_src_device_type="核心交换机" data_src_cabinet="a01" data_src_u_position="20" data_src_port_channel="10" data_src_physical_interface="g1/0/4" data_src_vrf="default" data_src_vlan="" data_src_interface_ip="10.1.1.1" data_dst_device_name="intcsw01" data_dst_management_address="10.255.1.2" data_dst_parent_region="互联网" data_dst_region="DMZ" data_dst_device_model="8886" data_dst_device_type="核心交换机" data_dst_cabinet="a02" data_dst_u_position="20" data_dst_port_channel="10" data_dst_physical_interface="g1/0/4" data_dst_vrf="default" data_dst_vlan="g1/0/1" data_dst_interface_ip="10.1.1.2">
          <mxGeometry relative="1" as="geometry">
            <Array as="points">
              <mxPoint x="-160" />
            </Array>
            <mxPoint as="targetPoint" />
          </mxGeometry>
        </mxCell>
        <mxCell id="edgeLabel_16" value="PC10&lt;br/&gt;g1/0/4&lt;br/&gt;VRF:default&lt;br/&gt;10.1.1.1" style="edgeLabel;html=1;align=center;verticalAlign=middle;resizable=0;points=[];fontSize=10;fontColor=#000000;labelBackgroundColor=#ffffff;strokeColor=#cccccc;rounded=1;" parent="edge_15" vertex="1" connectable="0">
          <mxGeometry x="-0.8" relative="1" as="geometry">
            <mxPoint x="-20" y="-15" as="offset" />
          </mxGeometry>
        </mxCell>
        <mxCell id="edgeLabel_17" value="PC10&lt;br/&gt;g1/0/4&lt;br/&gt;VRF:default&lt;br/&gt;VLAN:g1/0/1&lt;br/&gt;10.1.1.2" style="edgeLabel;html=1;align=center;verticalAlign=middle;resizable=0;points=[];fontSize=10;fontColor=#000000;labelBackgroundColor=#ffffff;strokeColor=#cccccc;rounded=1;" parent="edge_15" vertex="1" connectable="0">
          <mxGeometry x="0.8" relative="1" as="geometry">
            <mxPoint x="20" y="-15" as="offset" />
          </mxGeometry>
        </mxCell>
        <mxCell id="device_5" value="&lt;div&gt;&lt;b&gt;intcsw01&lt;/b&gt;&lt;br/&gt;10.255.1.2&lt;/div&gt;" style="rounded=1;whiteSpace=wrap;html=1;fillColor=#dae8fc;strokeColor=#6c8ebf;fontSize=16;" parent="1" vertex="1" data_type="device" data_device_name="intcsw01" data_management_address="10.255.1.2" data_region="DMZ" data_parent_region="互联网" data_device_model="8886" data_device_type="核心交换机" data_cabinet="a02" data_u_position="20">
          <mxGeometry x="-590" y="370" width="160" height="80" as="geometry" />
        </mxCell>
      </root>
    </mxGraphModel>
  </diagram>
</mxfile>
